<svg xmlns="http://www.w3.org/2000/svg" viewBox="0 0 30 20">
  <rect width="30" height="20" fill="#B22234" rx="1.5"/>
  <path fill="#fff" d="M0 1.54h30V3.08H0zm0 3.08h30v1.54H0zm0 3.08h30v1.54H0zm0 3.08h30v1.54H0zm0 3.08h30v1.54H0zm0 3.08h30V18.5H0z"/>
  <rect width="12" height="10.8" fill="#3C3B6E"/>
  <g fill="#fff">
    <circle cx="1.4" cy="1.3" r="0.45"/><circle cx="3.4" cy="1.3" r="0.45"/><circle cx="5.4" cy="1.3" r="0.45"/><circle cx="7.4" cy="1.3" r="0.45"/><circle cx="9.4" cy="1.3" r="0.45"/>
    <circle cx="2.4" cy="2.9" r="0.45"/><circle cx="4.4" cy="2.9" r="0.45"/><circle cx="6.4" cy="2.9" r="0.45"/><circle cx="8.4" cy="2.9" r="0.45"/>
    <circle cx="1.4" cy="4.5" r="0.45"/><circle cx="3.4" cy="4.5" r="0.45"/><circle cx="5.4" cy="4.5" r="0.45"/><circle cx="7.4" cy="4.5" r="0.45"/><circle cx="9.4" cy="4.5" r="0.45"/>
    <circle cx="2.4" cy="6.1" r="0.45"/><circle cx="4.4" cy="6.1" r="0.45"/><circle cx="6.4" cy="6.1" r="0.45"/><circle cx="8.4" cy="6.1" r="0.45"/>
    <circle cx="1.4" cy="7.7" r="0.45"/><circle cx="3.4" cy="7.7" r="0.45"/><circle cx="5.4" cy="7.7" r="0.45"/><circle cx="7.4" cy="7.7" r="0.45"/><circle cx="9.4" cy="7.7" r="0.45"/>
    <circle cx="2.4" cy="9.3" r="0.45"/><circle cx="4.4" cy="9.3" r="0.45"/><circle cx="6.4" cy="9.3" r="0.45"/><circle cx="8.4" cy="9.3" r="0.45"/>
  </g>
</svg>
